<svg xmlns="http://www.w3.org/2000/svg" width="250" height="250" viewBox="0 0 2362 2362" version="1.1"><path d="M 2045 1716 L 2045 1723 2061.990 1723 L 2078.980 1723 2079.240 1770.250 L 2079.500 1817.500 2088.250 1817.789 L 2097 1818.078 2097 1770.539 L 2097 1723 2114 1723 L 2131 1723 2131 1716 L 2131 1709 2088 1709 L 2045 1709 2045 1716 M 2153.241 1763.250 L 2153.500 1817.500 2162.500 1817.500 L 2171.500 1817.500 2172 1773.129 L 2172.500 1728.757 2189.429 1772.129 C 2198.740 1795.983, 2206.783 1816.063, 2207.302 1816.750 C 2207.846 1817.471, 2210.462 1818, 2213.483 1818 L 2218.720 1818 2236.610 1772.372 L 2254.500 1726.744 2254.760 1772.372 L 2255.020 1818 2264.010 1818 L 2273 1818 2273 1763.500 L 2273 1709 2259.109 1709 L 2245.217 1709 2243.508 1713.250 C 2242.568 1715.588, 2235.724 1733.250, 2228.298 1752.500 C 2220.871 1771.750, 2214.456 1788.117, 2214.041 1788.870 C 2213.327 1790.166, 2208.665 1778.877, 2188.397 1726.767 L 2181.500 1709.034 2167.241 1709.017 L 2152.983 1709 2153.241 1763.250 M 266 1826.078 C 249.428 1828.179, 227.222 1834.873, 212.584 1842.180 C 157.873 1869.491, 128 1924.827, 128 1998.862 C 128 2071.023, 157.530 2126.105, 210.832 2153.370 C 236.845 2166.676, 266.607 2172.928, 298 2171.682 C 376.154 2168.580, 431.797 2122.766, 448.357 2047.883 C 452.137 2030.791, 453.346 2018.497, 453.309 1997.500 C 453.272 1976.670, 451.576 1961.431, 447.353 1944 C 431.594 1878.953, 384.749 1836.508, 317.735 1826.558 C 306.448 1824.882, 277.547 1824.614, 266 1826.078 M 676 1827.032 C 650.875 1830.004, 622.384 1844.029, 603.069 1862.933 L 595 1870.830 595 1851.904 L 595 1832.978 553.750 1833.239 L 512.500 1833.500 512.247 1997.750 L 511.994 2162 556.497 2162 L 601 2162 601 2052.196 L 601 1942.392 603.822 1937.946 C 615.124 1920.137, 640.118 1910.686, 680 1909.140 L 696.500 1908.500 696.761 1867.887 L 697.022 1827.275 692.372 1826.637 C 687.071 1825.911, 685.067 1825.959, 676 1827.032 M 857.500 1827.025 C 817.066 1830.621, 785.844 1842.825, 759.858 1865.191 C 753.692 1870.498, 739.891 1885.665, 737.745 1889.494 C 737.189 1890.486, 744.656 1895.225, 766.094 1907.485 L 795.198 1924.130 803.104 1916.138 C 815.758 1903.347, 830.558 1894.623, 847.530 1889.947 C 858.305 1886.979, 884.090 1886.100, 894.668 1888.340 C 908.660 1891.303, 919.104 1898.484, 923.990 1908.500 L 926.430 1913.500 926.807 1927.687 L 927.185 1941.875 923.842 1942.420 C 922.004 1942.720, 913.525 1943.902, 905 1945.047 C 825.150 1955.776, 768.781 1977.792, 742.758 2008.415 C 732.426 2020.573, 727.229 2030.555, 722.796 2046.758 L 720.677 2054.500 720.695 2071 L 720.713 2087.500 723.325 2097.500 C 733.028 2134.649, 761.044 2159.364, 799.888 2165.044 C 810.319 2166.569, 840.268 2165.773, 851.500 2163.672 C 876.485 2158.999, 899.130 2150.395, 921.604 2137.037 L 926.708 2134.004 930.015 2146.752 C 931.833 2153.763, 933.715 2160.287, 934.196 2161.250 L 935.070 2163 973.035 2163 L 1011 2163 1011 2038.088 L 1011 1913.176 1009.585 1905.838 C 1001.352 1863.143, 967.301 1836.396, 911.224 1828.575 C 897.401 1826.647, 870.478 1825.870, 857.500 1827.025 M 1250 1827.538 C 1224.593 1831.555, 1196.365 1844.345, 1168 1864.692 C 1163.325 1868.046, 1159.402 1870.702, 1159.283 1870.595 C 1159.164 1870.487, 1157.326 1861.984, 1155.198 1851.698 C 1153.071 1841.413, 1151.144 1832.812, 1150.915 1832.586 C 1150.687 1832.360, 1134.750 1834.372, 1115.500 1837.057 C 1096.250 1839.742, 1080.162 1841.953, 1079.750 1841.969 C 1079.338 1841.986, 1079 1914, 1079 2002 L 1079 2162 1122 2162 L 1165 2162 1165 2044.065 L 1165 1926.130 1174.960 1918.627 C 1192.356 1905.523, 1207.657 1897.394, 1223.549 1892.812 L 1231.500 1890.519 1245.500 1890.510 L 1259.500 1890.500 1265.762 1893.392 C 1276.292 1898.255, 1282.303 1906.927, 1285.705 1922.163 L 1287.343 1929.500 1287.718 2045.750 L 1288.093 2162 1331.597 2162 L 1375.101 2162 1374.716 2037.750 L 1374.331 1913.500 1372.661 1905 C 1370.089 1891.907, 1366.254 1880.375, 1361.190 1870.500 C 1357.483 1863.273, 1354.793 1859.727, 1347.537 1852.500 C 1335.233 1840.246, 1324.962 1834.466, 1307.598 1830.025 C 1291.191 1825.829, 1267.326 1824.798, 1250 1827.538 M 1549.585 1827.107 C 1508.602 1833.084, 1473.530 1860.510, 1453.467 1902.271 C 1444.343 1921.262, 1438.844 1940.588, 1435.463 1965.540 C 1433.519 1979.896, 1433.232 2012.030, 1434.920 2026.500 C 1443.499 2100.049, 1479.614 2145.636, 1540.013 2159.153 L 1550.500 2161.500 1570.500 2161.484 L 1590.500 2161.468 1599.301 2159.240 C 1621.955 2153.507, 1637.130 2142.650, 1650.640 2122.509 L 1656 2114.518 1655.987 2142.509 L 1655.974 2170.500 1654.014 2180 C 1648.900 2204.798, 1634.423 2219.684, 1610.792 2224.447 C 1601.998 2226.219, 1579.422 2226.507, 1568.500 2224.986 C 1547.643 2222.081, 1533.859 2212.695, 1529.831 2198.654 C 1529.176 2196.369, 1528.589 2194.406, 1528.527 2194.291 C 1528.306 2193.879, 1443.964 2207.703, 1443.428 2208.238 C 1442.630 2209.036, 1445.817 2219.540, 1449.011 2226.637 C 1464.254 2260.512, 1503.023 2283.257, 1555.211 2288.942 C 1582.949 2291.964, 1625.998 2288.552, 1650.941 2281.355 C 1703.884 2266.078, 1730.981 2235.225, 1739.076 2181 C 1740.052 2174.468, 1740.430 2133.090, 1740.713 2002.250 L 1741.081 1832 1704.167 1832 L 1667.254 1832 1665.663 1840.750 C 1664.788 1845.563, 1663.295 1853.915, 1662.344 1859.312 L 1660.616 1869.124 1659.058 1866.149 C 1651.508 1851.730, 1631.493 1837.702, 1609.635 1831.510 C 1592.640 1826.695, 1565.867 1824.732, 1549.585 1827.107 M 1920 1827.507 C 1896.708 1830.698, 1874.630 1838.780, 1856.766 1850.655 C 1847.151 1857.048, 1831.753 1872.012, 1824.673 1881.845 C 1808.670 1904.072, 1797.756 1934.655, 1793.929 1968 C 1792.362 1981.649, 1792.367 2014.758, 1793.937 2027.500 C 1799.224 2070.408, 1813.583 2103.433, 1837.362 2127.375 C 1856.554 2146.699, 1880.528 2159.023, 1910.701 2165.075 C 1924.320 2167.807, 1956.365 2168.829, 1973.203 2167.069 C 2024.943 2161.661, 2064.975 2139.734, 2089.124 2103.576 C 2092.305 2098.812, 2092.828 2097.421, 2091.790 2096.473 C 2088.708 2093.658, 2029.775 2061.838, 2029.103 2062.626 C 2028.694 2063.107, 2026.078 2066.425, 2023.291 2070 C 2003.155 2095.829, 1975.848 2107.080, 1943.039 2103.065 C 1902.649 2098.124, 1881.661 2071.448, 1878.344 2020.841 L 1877.700 2011.009 1987.100 2010.754 L 2096.500 2010.500 2097 2001.500 C 2097.686 1989.161, 2096.480 1965.569, 2094.548 1953.500 C 2081.316 1870.868, 2027.998 1825.538, 1944.699 1826.103 C 1936.339 1826.160, 1925.225 1826.792, 1920 1827.507 M 1929 1886.560 C 1912.342 1890.151, 1896.370 1902.681, 1888.715 1918.166 C 1884.893 1925.897, 1880.681 1940.505, 1879.751 1949.250 L 1879.246 1954 1945.767 1954 L 2012.288 1954 2011.629 1946.102 C 2009.475 1920.281, 1998.142 1901.590, 1978.883 1892.096 C 1974.272 1889.823, 1967.350 1887.305, 1963.500 1886.499 C 1954.782 1884.675, 1937.604 1884.705, 1929 1886.560 M 1570.634 1889.522 C 1549.185 1894.949, 1532.273 1914.131, 1525.087 1941.184 C 1521.159 1955.971, 1520.499 1962.840, 1520.542 1988.500 C 1520.613 2030.055, 1525.210 2050.788, 1538.501 2069.500 C 1548.866 2084.092, 1564.128 2091, 1586 2091 C 1605.659 2091, 1620.653 2085.219, 1632.238 2073.174 C 1649.143 2055.595, 1657 2027.388, 1657 1984.272 C 1657 1934.369, 1638.634 1901.133, 1605.086 1890.329 C 1598.345 1888.158, 1577.918 1887.679, 1570.634 1889.522 M 277.315 1898.937 C 251.803 1903.013, 233.635 1917.871, 223.415 1943.016 C 212.563 1969.714, 211.632 2018.988, 221.436 2047.810 C 228.416 2068.333, 240.381 2083.235, 256 2090.856 C 268.026 2096.724, 277.067 2098.350, 294.473 2097.775 L 308.500 2097.311 316.500 2094.580 C 334.079 2088.580, 345.865 2078.146, 354.556 2060.890 C 362.227 2045.655, 365.768 2029.579, 366.646 2006 C 368.195 1964.360, 358.782 1932.797, 339.583 1915.249 C 333.004 1909.237, 320.489 1902.574, 311.886 1900.503 C 304.263 1898.668, 284.578 1897.777, 277.315 1898.937 M 913.500 1996.149 C 853.655 2005.199, 822.182 2019.666, 810.377 2043.551 L 806.539 2051.318 806.158 2061.612 C 805.849 2069.942, 806.172 2073.207, 807.847 2078.724 C 813.718 2098.050, 829.144 2108.115, 850.597 2106.617 C 874.079 2104.976, 896.929 2095.023, 919.250 2076.711 L 924 2072.814 924 2033.907 L 924 1995 921.750 1995.121 C 920.513 1995.187, 916.800 1995.650, 913.500 1996.149" stroke="none" fill="#fcfbfa" fill-rule="evenodd"/><path d="M 0 1181 L 0 2362.001 1181.250 2361.750 L 2362.500 2361.500 2362.750 1180.750 L 2363.001 0 1181.500 0 L 0 0 0 1181 M 0.498 1181.500 C 0.498 1831.050, 0.612 2096.625, 0.750 1771.667 C 0.888 1446.709, 0.888 915.259, 0.750 590.667 C 0.612 266.075, 0.498 531.950, 0.498 1181.500 M 2045 1716 L 2045 1723 2061.990 1723 L 2078.980 1723 2079.240 1770.250 L 2079.500 1817.500 2088.250 1817.789 L 2097 1818.078 2097 1770.539 L 2097 1723 2114 1723 L 2131 1723 2131 1716 L 2131 1709 2088 1709 L 2045 1709 2045 1716 M 2153.241 1763.250 L 2153.500 1817.500 2162.500 1817.500 L 2171.500 1817.500 2172 1773.129 L 2172.500 1728.757 2189.429 1772.129 C 2198.740 1795.983, 2206.783 1816.063, 2207.302 1816.750 C 2207.846 1817.471, 2210.462 1818, 2213.483 1818 L 2218.720 1818 2236.610 1772.372 L 2254.500 1726.744 2254.760 1772.372 L 2255.020 1818 2264.010 1818 L 2273 1818 2273 1763.500 L 2273 1709 2259.109 1709 L 2245.217 1709 2243.508 1713.250 C 2242.568 1715.588, 2235.724 1733.250, 2228.298 1752.500 C 2220.871 1771.750, 2214.456 1788.117, 2214.041 1788.870 C 2213.327 1790.166, 2208.665 1778.877, 2188.397 1726.767 L 2181.500 1709.034 2167.241 1709.017 L 2152.983 1709 2153.241 1763.250 M 266 1826.078 C 249.428 1828.179, 227.222 1834.873, 212.584 1842.180 C 157.873 1869.491, 128 1924.827, 128 1998.862 C 128 2071.023, 157.530 2126.105, 210.832 2153.370 C 236.845 2166.676, 266.607 2172.928, 298 2171.682 C 376.154 2168.580, 431.797 2122.766, 448.357 2047.883 C 452.137 2030.791, 453.346 2018.497, 453.309 1997.500 C 453.272 1976.670, 451.576 1961.431, 447.353 1944 C 431.594 1878.953, 384.749 1836.508, 317.735 1826.558 C 306.448 1824.882, 277.547 1824.614, 266 1826.078 M 676 1827.032 C 650.875 1830.004, 622.384 1844.029, 603.069 1862.933 L 595 1870.830 595 1851.904 L 595 1832.978 553.750 1833.239 L 512.500 1833.500 512.247 1997.750 L 511.994 2162 556.497 2162 L 601 2162 601 2052.196 L 601 1942.392 603.822 1937.946 C 615.124 1920.137, 640.118 1910.686, 680 1909.140 L 696.500 1908.500 696.761 1867.887 L 697.022 1827.275 692.372 1826.637 C 687.071 1825.911, 685.067 1825.959, 676 1827.032 M 857.500 1827.025 C 817.066 1830.621, 785.844 1842.825, 759.858 1865.191 C 753.692 1870.498, 739.891 1885.665, 737.745 1889.494 C 737.189 1890.486, 744.656 1895.225, 766.094 1907.485 L 795.198 1924.130 803.104 1916.138 C 815.758 1903.347, 830.558 1894.623, 847.530 1889.947 C 858.305 1886.979, 884.090 1886.100, 894.668 1888.340 C 908.660 1891.303, 919.104 1898.484, 923.990 1908.500 L 926.430 1913.500 926.807 1927.687 L 927.185 1941.875 923.842 1942.420 C 922.004 1942.720, 913.525 1943.902, 905 1945.047 C 825.150 1955.776, 768.781 1977.792, 742.758 2008.415 C 732.426 2020.573, 727.229 2030.555, 722.796 2046.758 L 720.677 2054.500 720.695 2071 L 720.713 2087.500 723.325 2097.500 C 733.028 2134.649, 761.044 2159.364, 799.888 2165.044 C 810.319 2166.569, 840.268 2165.773, 851.500 2163.672 C 876.485 2158.999, 899.130 2150.395, 921.604 2137.037 L 926.708 2134.004 930.015 2146.752 C 931.833 2153.763, 933.715 2160.287, 934.196 2161.250 L 935.070 2163 973.035 2163 L 1011 2163 1011 2038.088 L 1011 1913.176 1009.585 1905.838 C 1001.352 1863.143, 967.301 1836.396, 911.224 1828.575 C 897.401 1826.647, 870.478 1825.870, 857.500 1827.025 M 1250 1827.538 C 1224.593 1831.555, 1196.365 1844.345, 1168 1864.692 C 1163.325 1868.046, 1159.402 1870.702, 1159.283 1870.595 C 1159.164 1870.487, 1157.326 1861.984, 1155.198 1851.698 C 1153.071 1841.413, 1151.144 1832.812, 1150.915 1832.586 C 1150.687 1832.360, 1134.750 1834.372, 1115.500 1837.057 C 1096.250 1839.742, 1080.162 1841.953, 1079.750 1841.969 C 1079.338 1841.986, 1079 1914, 1079 2002 L 1079 2162 1122 2162 L 1165 2162 1165 2044.065 L 1165 1926.130 1174.960 1918.627 C 1192.356 1905.523, 1207.657 1897.394, 1223.549 1892.812 L 1231.500 1890.519 1245.500 1890.510 L 1259.500 1890.500 1265.762 1893.392 C 1276.292 1898.255, 1282.303 1906.927, 1285.705 1922.163 L 1287.343 1929.500 1287.718 2045.750 L 1288.093 2162 1331.597 2162 L 1375.101 2162 1374.716 2037.750 L 1374.331 1913.500 1372.661 1905 C 1370.089 1891.907, 1366.254 1880.375, 1361.190 1870.500 C 1357.483 1863.273, 1354.793 1859.727, 1347.537 1852.500 C 1335.233 1840.246, 1324.962 1834.466, 1307.598 1830.025 C 1291.191 1825.829, 1267.326 1824.798, 1250 1827.538 M 1549.585 1827.107 C 1508.602 1833.084, 1473.530 1860.510, 1453.467 1902.271 C 1444.343 1921.262, 1438.844 1940.588, 1435.463 1965.540 C 1433.519 1979.896, 1433.232 2012.030, 1434.920 2026.500 C 1443.499 2100.049, 1479.614 2145.636, 1540.013 2159.153 L 1550.500 2161.500 1570.500 2161.484 L 1590.500 2161.468 1599.301 2159.240 C 1621.955 2153.507, 1637.130 2142.650, 1650.640 2122.509 L 1656 2114.518 1655.987 2142.509 L 1655.974 2170.500 1654.014 2180 C 1648.900 2204.798, 1634.423 2219.684, 1610.792 2224.447 C 1601.998 2226.219, 1579.422 2226.507, 1568.500 2224.986 C 1547.643 2222.081, 1533.859 2212.695, 1529.831 2198.654 C 1529.176 2196.369, 1528.589 2194.406, 1528.527 2194.291 C 1528.306 2193.879, 1443.964 2207.703, 1443.428 2208.238 C 1442.630 2209.036, 1445.817 2219.540, 1449.011 2226.637 C 1464.254 2260.512, 1503.023 2283.257, 1555.211 2288.942 C 1582.949 2291.964, 1625.998 2288.552, 1650.941 2281.355 C 1703.884 2266.078, 1730.981 2235.225, 1739.076 2181 C 1740.052 2174.468, 1740.430 2133.090, 1740.713 2002.250 L 1741.081 1832 1704.167 1832 L 1667.254 1832 1665.663 1840.750 C 1664.788 1845.563, 1663.295 1853.915, 1662.344 1859.312 L 1660.616 1869.124 1659.058 1866.149 C 1651.508 1851.730, 1631.493 1837.702, 1609.635 1831.510 C 1592.640 1826.695, 1565.867 1824.732, 1549.585 1827.107 M 1920 1827.507 C 1896.708 1830.698, 1874.630 1838.780, 1856.766 1850.655 C 1847.151 1857.048, 1831.753 1872.012, 1824.673 1881.845 C 1808.670 1904.072, 1797.756 1934.655, 1793.929 1968 C 1792.362 1981.649, 1792.367 2014.758, 1793.937 2027.500 C 1799.224 2070.408, 1813.583 2103.433, 1837.362 2127.375 C 1856.554 2146.699, 1880.528 2159.023, 1910.701 2165.075 C 1924.320 2167.807, 1956.365 2168.829, 1973.203 2167.069 C 2024.943 2161.661, 2064.975 2139.734, 2089.124 2103.576 C 2092.305 2098.812, 2092.828 2097.421, 2091.790 2096.473 C 2088.708 2093.658, 2029.775 2061.838, 2029.103 2062.626 C 2028.694 2063.107, 2026.078 2066.425, 2023.291 2070 C 2003.155 2095.829, 1975.848 2107.080, 1943.039 2103.065 C 1902.649 2098.124, 1881.661 2071.448, 1878.344 2020.841 L 1877.700 2011.009 1987.100 2010.754 L 2096.500 2010.500 2097 2001.500 C 2097.686 1989.161, 2096.480 1965.569, 2094.548 1953.500 C 2081.316 1870.868, 2027.998 1825.538, 1944.699 1826.103 C 1936.339 1826.160, 1925.225 1826.792, 1920 1827.507 M 1929 1886.560 C 1912.342 1890.151, 1896.370 1902.681, 1888.715 1918.166 C 1884.893 1925.897, 1880.681 1940.505, 1879.751 1949.250 L 1879.246 1954 1945.767 1954 L 2012.288 1954 2011.629 1946.102 C 2009.475 1920.281, 1998.142 1901.590, 1978.883 1892.096 C 1974.272 1889.823, 1967.350 1887.305, 1963.500 1886.499 C 1954.782 1884.675, 1937.604 1884.705, 1929 1886.560 M 1570.634 1889.522 C 1549.185 1894.949, 1532.273 1914.131, 1525.087 1941.184 C 1521.159 1955.971, 1520.499 1962.840, 1520.542 1988.500 C 1520.613 2030.055, 1525.210 2050.788, 1538.501 2069.500 C 1548.866 2084.092, 1564.128 2091, 1586 2091 C 1605.659 2091, 1620.653 2085.219, 1632.238 2073.174 C 1649.143 2055.595, 1657 2027.388, 1657 1984.272 C 1657 1934.369, 1638.634 1901.133, 1605.086 1890.329 C 1598.345 1888.158, 1577.918 1887.679, 1570.634 1889.522 M 277.315 1898.937 C 251.803 1903.013, 233.635 1917.871, 223.415 1943.016 C 212.563 1969.714, 211.632 2018.988, 221.436 2047.810 C 228.416 2068.333, 240.381 2083.235, 256 2090.856 C 268.026 2096.724, 277.067 2098.350, 294.473 2097.775 L 308.500 2097.311 316.500 2094.580 C 334.079 2088.580, 345.865 2078.146, 354.556 2060.890 C 362.227 2045.655, 365.768 2029.579, 366.646 2006 C 368.195 1964.360, 358.782 1932.797, 339.583 1915.249 C 333.004 1909.237, 320.489 1902.574, 311.886 1900.503 C 304.263 1898.668, 284.578 1897.777, 277.315 1898.937 M 913.500 1996.149 C 853.655 2005.199, 822.182 2019.666, 810.377 2043.551 L 806.539 2051.318 806.158 2061.612 C 805.849 2069.942, 806.172 2073.207, 807.847 2078.724 C 813.718 2098.050, 829.144 2108.115, 850.597 2106.617 C 874.079 2104.976, 896.929 2095.023, 919.250 2076.711 L 924 2072.814 924 2033.907 L 924 1995 921.750 1995.121 C 920.513 1995.187, 916.800 1995.650, 913.500 1996.149" stroke="none" fill="#fc7c04" fill-rule="evenodd"/></svg>